<svg viewBox="0 0 470 75" fill="none" xmlns="http://www.w3.org/2000/svg">
<g clip-path="url(#clip0_302_5)">
<path d="M81.509 34.149H74.219V26.883H66.915V34.149H59.612V41.414H66.915V48.68H74.219V41.414H81.509V34.149Z" fill="#F03741"/>
<path d="M74.219 19.618L74.217 15.421C74.209 7.39999 67.689 0.900991 59.64 0.890991L14.724 0.892991C6.677 0.900991 0.156996 7.39999 0.145996 15.421V60.142C0.156996 68.163 6.677 74.662 14.724 74.671L59.64 74.673C67.689 74.662 74.209 68.163 74.217 60.142L74.219 55.945H66.914V60.165C66.887 64.145 63.654 67.351 59.664 67.38H14.702C10.708 67.353 7.474 64.142 7.444 60.165V15.398C7.474 11.421 10.708 8.20299 14.702 8.17499H59.664C63.654 8.20299 66.887 11.419 66.914 15.398V19.618H74.219V19.618Z" fill="#F03741"/>
<path d="M155.698 37.04C155.698 29.977 150.886 28.32 146.773 28.32C142.224 28.32 137.849 29.454 135.576 30.5C136.275 32.156 136.714 34.25 136.714 36.778V62.5H131.463V37.04C131.463 29.977 126.829 28.32 122.453 28.32C118.167 28.32 114.756 29.192 112.394 30.064V62.5H107.146V26.925C112.132 24.92 117.379 23.612 122.453 23.612C126.914 23.612 130.328 24.57 132.69 26.576C137.239 24.833 142.136 23.612 146.773 23.612C155.96 23.612 160.946 27.36 160.946 36.865V62.5H155.698V37.04V37.04Z" fill="#676767"/>
<path d="M199.612 39.394C199.262 31.459 194.975 28.233 188.589 28.233C182.639 28.233 177.828 32.244 176.342 39.394H199.612V39.394ZM175.991 43.753V43.928C175.991 53.258 182.728 58.75 190.163 58.75C195.588 58.75 199.35 57.356 203.197 54.477V59.71C199.786 62.238 194.886 63.371 190.163 63.371C179.14 63.371 170.743 55.873 170.743 43.491C170.743 32.069 178.615 23.612 188.851 23.612C198.475 23.612 204.86 29.365 204.86 40.178V43.753H175.991V43.753Z" fill="#676767"/>
<path d="M241.775 30.064C239.85 29.018 236.964 28.32 233.464 28.32C224.628 28.32 217.803 33.727 217.803 43.492C217.803 53.17 224.54 58.75 234.599 58.75C237.049 58.75 239.499 58.664 241.775 58.315V30.064V30.064ZM247.023 61.977C242.91 62.936 238.624 63.371 234.599 63.371C221.391 63.371 212.467 56.222 212.467 43.492C212.467 30.675 222.09 23.612 233.464 23.612C236.35 23.612 239.85 24.222 241.775 25.356V3.20798H247.023V61.977Z" fill="#676767"/>
<path d="M286.565 30.064C284.64 29.018 281.754 28.32 278.254 28.32C269.418 28.32 262.593 33.727 262.593 43.492C262.593 53.17 269.329 58.75 279.389 58.75C281.839 58.75 284.289 58.664 286.565 58.315V30.064ZM291.813 61.977C287.7 62.936 283.413 63.371 279.389 63.371C266.181 63.371 257.256 56.222 257.256 43.492C257.256 30.675 266.879 23.612 278.254 23.612C281.14 23.612 284.64 24.222 286.565 25.356V3.20798H291.813V61.977Z" fill="#676767"/>
<path d="M310.619 57.879C312.806 58.489 315.345 58.75 317.795 58.75C327.94 58.75 334.414 52.997 334.414 43.317C334.414 33.552 327.678 28.32 319.717 28.32C315.781 28.32 312.806 29.018 310.619 30.064V57.879ZM305.371 3.20798H310.619V25.53C312.282 24.57 316.044 23.612 319.717 23.612C331.177 23.612 339.75 30.239 339.75 43.317C339.75 55.612 331.003 63.371 317.795 63.371C313.771 63.371 309.307 62.675 305.371 61.454V3.20798V3.20798Z" fill="#676767"/>
<path d="M369.755 44.799H365.819C357.947 44.799 352.172 46.891 352.172 51.948C352.172 57.005 357.423 58.838 364.419 58.838C365.996 58.838 367.918 58.663 369.755 58.315V44.799V44.799ZM369.755 35.905C369.755 31.023 366.606 28.494 361.71 28.494C357.334 28.494 354.012 29.715 350.512 31.546V26.575C353.749 24.833 357.859 23.612 362.32 23.612C370.017 23.612 375.006 27.012 375.006 35.557V61.801C371.506 62.761 367.394 63.197 364.156 63.197C353.835 63.197 346.924 59.971 346.924 51.948C346.924 44.451 353.835 40.526 365.471 40.526H369.755V35.905V35.905Z" fill="#676767"/>
<path d="M385.239 54.391C388.476 57.268 391.802 58.925 396 58.925C400.812 58.925 403.872 57.094 403.872 52.822C403.872 48.288 400.549 47.066 394.511 45.061C387.778 42.794 384.888 40.004 384.888 33.9C384.888 27.187 389.962 23.612 396.876 23.612C400.635 23.612 404.311 24.397 407.283 26.489V32.156C404.311 29.716 401.248 28.058 396.876 28.058C392.675 28.058 389.962 30.325 389.962 33.9C389.962 37.388 392.064 39.219 397.925 41.05C404.574 43.055 409.034 45.584 409.034 52.472C409.034 59.971 403.173 63.371 396 63.371C391.714 63.371 387.601 62.152 385.239 60.32V54.391V54.391Z" fill="#676767"/>
<path d="M445.077 39.394C444.726 31.459 440.443 28.233 434.057 28.233C428.107 28.233 423.296 32.244 421.807 39.394H445.077ZM421.459 43.753V43.928C421.459 53.258 428.196 58.75 435.631 58.75C441.053 58.75 444.815 57.356 448.665 54.477V59.71C445.254 62.238 440.354 63.371 435.631 63.371C424.608 63.371 416.208 55.873 416.208 43.491C416.208 32.069 424.083 23.612 434.319 23.612C443.939 23.612 450.325 29.365 450.325 40.178V43.753H421.459V43.753Z" fill="#676767"/>
<path d="M462.95 29.271H463.371C463.969 29.271 464.36 29.064 464.36 28.496C464.36 27.957 463.939 27.717 463.402 27.717C463.311 27.717 463.072 27.717 462.95 27.748V29.271V29.271ZM462.95 32.142H461.632V26.701C462.084 26.613 462.798 26.522 463.371 26.522C464.72 26.522 465.739 27.152 465.739 28.496C465.739 29.244 465.318 29.84 464.75 30.111L466.221 32.142H464.69L463.487 30.409H462.95V32.142V32.142ZM468.046 29.481C468.046 26.881 466.221 24.849 463.579 24.849C460.973 24.849 459.143 26.881 459.143 29.481C459.143 32.023 460.973 34.085 463.579 34.085C466.221 34.085 468.046 32.023 468.046 29.481ZM457.971 29.481C457.971 26.285 460.345 23.803 463.579 23.803C466.85 23.803 469.217 26.285 469.217 29.481C469.217 32.65 466.85 35.131 463.579 35.131C460.345 35.131 457.971 32.65 457.971 29.481Z" fill="#676767"/>
</g>
<defs>
<clipPath id="clip0_302_5">
<rect width="469.071" height="73.782" fill="white" transform="translate(0.145996 0.890991)"/>
</clipPath>
</defs>
</svg>
